<svg width="113" height="60" viewBox="0 0 113 60" fill="none" xmlns="http://www.w3.org/2000/svg">
<path d="M19 40.3159C45.3658 40.3159 63.9683 38.2256 66.2387 37.1804C70.4865 36.0935 72.6105 33.8162 72.6105 28.7774C72.6105 23.6352 62.943 19.6218 56.5713 23.6352C51.4739 26.8459 50.1263 31.2021 50.4192 32.4145" stroke="#6D6464" stroke-width="3"/>
<path d="M28.0083 43.2006C54.3741 43.2006 72.9766 44.8896 75.247 45.7341C79.4948 46.6123 81.6188 48.4524 81.6188 52.5238C81.6188 56.6787 71.9513 59.9216 65.5796 56.6787C60.4822 54.0844 59.1346 50.5646 59.4275 49.585" stroke="#6D6464" stroke-width="3"/>
<path d="M28.0083 41.6956C69.0698 41.6956 98.0409 39.6058 101.577 38.5609C108.192 37.4742 111.5 35.1975 111.5 30.16C111.5 25.0192 96.4441 21.0068 86.5209 25.0192C78.5824 28.2291 76.4837 32.5842 76.9399 33.7962" stroke="#6D6464" stroke-width="3"/>
<path d="M0 27.9475C26.3658 27.9475 44.9683 24.9863 47.2387 23.5056C51.4865 21.9658 53.6105 18.7396 53.6105 11.6013C53.6105 4.31655 43.943 -1.36911 37.5713 4.31655C32.4739 8.86507 31.1263 15.0364 31.4192 16.7539" stroke="#6D6464" stroke-width="3"/>
<path d="M9.0083 32.0341C35.3741 32.0341 53.9766 34.4269 56.247 35.6233C60.4948 36.8675 62.6188 39.4743 62.6188 45.2421C62.6188 51.1282 52.9513 55.7223 46.5796 51.1282C41.4822 47.453 40.1346 42.4665 40.4275 41.0787" stroke="#6D6464" stroke-width="3"/>
<path d="M9.0083 29.902C50.0698 29.902 79.0409 26.9415 82.5768 25.4612C89.1923 23.9218 92.5 20.6964 92.5 13.56C92.5 6.27713 77.4441 0.592953 67.5209 6.27713C59.5824 10.8245 57.4837 16.9942 57.9399 18.7113" stroke="#6D6464" stroke-width="3"/>
</svg>
