<svg width="94" height="71" viewBox="0 0 94 71" fill="none" xmlns="http://www.w3.org/2000/svg">
<path d="M0 35.8433C26.3658 35.8433 44.9683 31.9809 47.2387 30.0497C51.4865 28.0412 53.6105 23.8333 53.6105 14.5229C53.6105 5.02147 43.943 -2.39431 37.5713 5.02146C32.4739 10.9541 31.1263 19.0033 31.4192 21.2435" stroke="#6D6464" stroke-width="3"/>
<path d="M9.0083 41.1734C35.3741 41.1734 53.9766 44.2942 56.247 45.8546C60.4948 47.4775 62.6188 50.8775 62.6188 58.4004C62.6188 66.0777 52.9513 72.0697 46.5796 66.0777C41.4822 61.2841 40.1346 54.7802 40.4275 52.9702" stroke="#6D6464" stroke-width="3"/>
<path d="M9.0083 38.3924C50.0698 38.3924 79.0409 34.5311 82.5768 32.6004C89.1923 30.5925 92.5 26.3856 92.5 17.0776C92.5 7.57867 77.4441 0.164819 67.5209 7.57866C59.5824 13.5097 57.4837 21.5568 57.9399 23.7964" stroke="#6D6464" stroke-width="3"/>
</svg>
